<svg xmlns="http://www.w3.org/2000/svg" viewBox="0 0 1200 630" width="1200" height="630" role="img" aria-label="LocalSearchAI.au · AI Search Ready Website Kit">
  <title>LocalSearchAI.au · AI Search Ready Website Kit</title>
  <defs>
    <linearGradient id="sky" x1="0" y1="0" x2="0" y2="1">
      <stop offset="0%" stop-color="#c8e8f5"></stop>
      <stop offset="55%" stop-color="#e8d8a8"></stop>
      <stop offset="100%" stop-color="#d4a870"></stop>
    </linearGradient>
  </defs>

  <rect width="1200" height="630" fill="#faf3df"></rect>

  <rect x="32" y="32" width="1136" height="220" rx="6" fill="url(#sky)"></rect>
  <circle cx="900" cy="100" r="55" fill="#f5c842"></circle>
  <path d="M 32,252 Q 280,110 580,170 T 1168,190 L 1168,252 Z" fill="#c4906a"></path>
  <path d="M 32,252 Q 380,170 700,215 T 1168,230 L 1168,252 Z" fill="#8b4a2f"></path>
  <path d="M 32,252 Q 200,210 500,238 T 1168,250 L 1168,252 Z" fill="#4a2010"></path>

  <g transform="translate(72, 320)">
    <rect x="0" y="0" width="370" height="60" rx="30" fill="#fdf9ed" stroke="#1a1812" stroke-width="3"></rect>
    <g transform="translate(26, 17)">
      <circle cx="13" cy="13" r="10" fill="none" stroke="#1a1812" stroke-width="3"></circle>
      <line x1="21" y1="21" x2="28" y2="28" stroke="#1a1812" stroke-width="3" stroke-linecap="round"></line>
    </g>
    <text x="76" y="40" font-family="Manrope, sans-serif" font-weight="500" font-size="26"><tspan fill="#1a1812">localsearch</tspan><tspan fill="#a87520">ai</tspan><tspan font-family="JetBrains Mono, monospace" font-size="20" fill="#75694a">.au</tspan></text>
  </g>

  <text x="72" y="448" font-family="Bricolage Grotesque, sans-serif" font-weight="500" font-size="70" fill="#1a1812" letter-spacing="-2">
    Help AI tools understand,
  </text>
  <text x="72" y="520" font-family="Bricolage Grotesque, sans-serif" font-weight="500" font-size="70" fill="#1a1812" letter-spacing="-2">
    trust, and recommend your
  </text>
  <text x="72" y="592" font-family="Bricolage Grotesque, sans-serif" font-weight="500" font-style="italic" font-size="70" fill="#a87520" letter-spacing="-2">
    local business.
  </text>

  <text x="1128" y="592" text-anchor="end" font-family="JetBrains Mono, monospace" font-size="22" fill="#75694a" letter-spacing="2">
    A$49 · 13-PAGE KIT
  </text>
</svg>
